<svg width="82" height="82" viewBox="0 0 82 82" fill="none" xmlns="http://www.w3.org/2000/svg">
<circle cx="41" cy="41" r="40.5" fill="#FDFDFD" stroke="#CFD7DE"/>
<path d="M56.8438 10C57.0312 15.4425 61.312 19.8789 66.6865 20.3184C61.4822 20.7422 57.3021 24.9146 56.8701 30.1191C56.8516 30.1194 56.833 30.121 56.8145 30.1211C56.3833 24.916 52.2045 20.7427 47 20.3184C52.3757 19.88 56.6562 15.4433 56.8438 10Z" fill="url(#paint0_linear_10724_4444)"/>
<path fill-rule="evenodd" clip-rule="evenodd" d="M30.5534 37.5025C30.5534 36.3464 29.6118 35.4092 28.4503 35.4092C28.4497 35.4092 28.4492 35.4092 28.4487 35.4092C27.2872 35.4092 26.3458 36.3464 26.3457 37.5025C26.3457 40.0434 26.3457 44.3023 26.3457 46.8432C26.3458 47.9994 27.2872 48.9366 28.4487 48.9366C28.4492 48.9366 28.4497 48.9366 28.4503 48.9366C29.6118 48.9366 30.5534 47.9994 30.5534 46.8432C30.5534 44.3023 30.5534 40.0434 30.5534 37.5025Z" fill="#1371C3"/>
<path fill-rule="evenodd" clip-rule="evenodd" d="M51.7539 46.8432C51.7539 47.9994 52.6955 48.9366 53.8569 48.9366C53.8575 48.9366 53.858 48.9366 53.8585 48.9366C55.0201 48.9366 55.9616 47.9994 55.9616 46.8432C55.9616 44.3023 55.9616 40.0434 55.9616 37.5025C55.9616 36.3464 55.0201 35.4092 53.8585 35.4092C53.858 35.4092 53.8575 35.4092 53.8569 35.4092C52.6955 35.4092 51.7539 36.3464 51.7539 37.5025C51.7539 40.0434 51.7539 44.3023 51.7539 46.8432Z" fill="#1371C3"/>
<path fill-rule="evenodd" clip-rule="evenodd" d="M36.9049 30.7203C36.9049 29.5642 35.9633 28.627 34.8019 28.627C34.8013 28.627 34.8008 28.627 34.8003 28.627C33.6388 28.627 32.6973 29.5642 32.6973 30.7203C32.6973 33.2691 32.6973 37.5482 32.6973 40.097C32.6973 41.2531 33.6388 42.1903 34.8003 42.1903C34.8008 42.1903 34.8013 42.1903 34.8019 42.1903C35.9633 42.1903 36.9049 41.2531 36.9049 40.097C36.9049 37.5482 36.9049 33.2691 36.9049 30.7203Z" fill="#1371C3"/>
<path fill-rule="evenodd" clip-rule="evenodd" d="M43.2936 23.0934C43.2936 21.9372 42.352 21 41.1906 21C41.19 21 41.1895 21 41.189 21C40.0275 21 39.0859 21.9372 39.0859 23.0934C39.0859 25.6341 39.0859 29.8932 39.0859 32.434C39.0859 33.5901 40.0275 34.5274 41.189 34.5274C41.1895 34.5274 41.19 34.5274 41.1906 34.5274C42.352 34.5274 43.2936 33.5901 43.2936 32.434C43.2936 29.8932 43.2936 25.6341 43.2936 23.0934Z" fill="#1371C3"/>
<path fill-rule="evenodd" clip-rule="evenodd" d="M49.6021 30.7027C49.6021 29.5466 48.6606 28.6094 47.4991 28.6094C47.4986 28.6094 47.4981 28.6094 47.4975 28.6094C46.3361 28.6094 45.3945 29.5466 45.3945 30.7027C45.3945 33.2515 45.3945 37.5306 45.3945 40.0794C45.3945 41.2355 46.3361 42.1728 47.4975 42.1728C47.4981 42.1728 47.4986 42.1728 47.4991 42.1728C48.6606 42.1728 49.6021 41.2355 49.6021 40.0794C49.6021 37.5306 49.6021 33.2515 49.6021 30.7027Z" fill="#1371C3"/>
<path fill-rule="evenodd" clip-rule="evenodd" d="M43.2936 38.3297C43.2936 37.1736 42.352 36.2363 41.1906 36.2363C40.0275 36.2363 39.0859 37.1736 39.0859 38.3297C39.0859 40.8785 39.0859 45.1576 39.0859 47.7064C39.0859 48.8624 40.0275 49.7997 41.189 49.7997C42.352 49.7997 43.2936 48.8624 43.2936 47.7064C43.2936 45.1576 43.2936 40.8785 43.2936 38.3297Z" fill="#1371C3"/>
<path fill-rule="evenodd" clip-rule="evenodd" d="M36.8668 53.566C36.8668 52.4099 35.9253 51.4727 34.7638 51.4727C34.7633 51.4727 34.7628 51.4727 34.7622 51.4727C33.6008 51.4727 32.6592 52.4099 32.6592 53.566C32.6592 54.128 32.6592 54.7355 32.6592 55.2975C32.6592 56.4537 33.6008 57.3909 34.7622 57.3909C34.7628 57.3909 34.7633 57.3909 34.7638 57.3909C35.9253 57.3909 36.8668 56.4537 36.8668 55.2975C36.8668 54.7355 36.8668 54.128 36.8668 53.566Z" fill="#24BC94"/>
<path fill-rule="evenodd" clip-rule="evenodd" d="M36.8444 45.9566C36.8444 44.8005 35.9028 43.8633 34.7414 43.8633C34.7408 43.8633 34.7403 43.8633 34.7397 43.8633C33.5782 43.8633 32.6367 44.8005 32.6367 45.9566C32.6367 46.5186 32.6367 47.1262 32.6367 47.6881C32.6367 48.8443 33.5782 49.7815 34.7397 49.7815C34.7403 49.7815 34.7408 49.7815 34.7414 49.7815C35.9028 49.7815 36.8444 48.8443 36.8444 47.6881C36.8444 47.1262 36.8444 46.5186 36.8444 45.9566Z" fill="#24BC94"/>
<path fill-rule="evenodd" clip-rule="evenodd" d="M43.2936 53.566C43.2936 52.4099 42.352 51.4727 41.1906 51.4727C41.19 51.4727 41.1895 51.4727 41.189 51.4727C40.0275 51.4727 39.0859 52.4099 39.0859 53.566C39.0859 54.128 39.0859 54.7355 39.0859 55.2975C39.0859 56.4537 40.0275 57.3909 41.189 57.3909C41.1895 57.3909 41.19 57.3909 41.1906 57.3909C42.352 57.3909 43.2936 56.4537 43.2936 55.2975C43.2936 54.7355 43.2936 54.128 43.2936 53.566Z" fill="#24BC94"/>
<path fill-rule="evenodd" clip-rule="evenodd" d="M49.6021 45.9566C49.6021 44.8005 48.6606 43.8633 47.4991 43.8633C46.3361 43.8633 45.3945 44.8005 45.3945 45.9566C45.3945 46.5186 45.3945 47.1262 45.3945 47.6881C45.3945 48.8443 46.3361 49.7815 47.4975 49.7815C48.6606 49.7815 49.6021 48.8443 49.6021 47.6881C49.6021 47.1262 49.6021 46.5186 49.6021 45.9566Z" fill="#24BC94"/>
<path fill-rule="evenodd" clip-rule="evenodd" d="M43.2936 61.1754C43.2936 60.0192 42.352 59.082 41.1906 59.082C41.19 59.082 41.1895 59.082 41.189 59.082C40.0275 59.082 39.0859 60.0192 39.0859 61.1754C39.0859 61.7374 39.0859 62.3449 39.0859 62.9069C39.0859 64.0631 40.0275 65.0002 41.189 65.0003C41.1895 65.0003 41.19 65.0003 41.1906 65.0003C42.352 65.0002 43.2936 64.0631 43.2936 62.9069C43.2936 62.3449 43.2936 61.7374 43.2936 61.1754Z" fill="#24BC94"/>
<path fill-rule="evenodd" clip-rule="evenodd" d="M49.6021 53.566C49.6021 52.4099 48.6606 51.4727 47.4991 51.4727C47.4986 51.4727 47.4981 51.4727 47.4975 51.4727C46.3361 51.4727 45.3945 52.4099 45.3945 53.566C45.3945 54.128 45.3945 54.7355 45.3945 55.2975C45.3945 56.4537 46.3361 57.3909 47.4975 57.3909C47.4981 57.3909 47.4986 57.3909 47.4991 57.3909C48.6606 57.3909 49.6021 56.4537 49.6021 55.2975C49.6021 54.7355 49.6021 54.128 49.6021 53.566Z" fill="#24BC94"/>
<circle cx="41" cy="41" r="41" fill="url(#paint1_linear_10724_4444)"/>
<circle opacity="0.5" cx="41" cy="41" r="41" fill="url(#paint2_radial_10724_4444)"/>
<g filter="url(#filter0_d_10724_4444)">
<path d="M57.498 10C57.6855 15.4425 61.9663 19.8789 67.3408 20.3184C62.1365 20.7422 57.9564 24.9146 57.5244 30.1191C57.5059 30.1194 57.4873 30.121 57.4688 30.1211C57.0376 24.916 52.8588 20.7427 47.6543 20.3184C53.03 19.88 57.3105 15.4433 57.498 10Z" fill="white"/>
</g>
<path fill-rule="evenodd" clip-rule="evenodd" d="M30.648 37.7305C30.648 36.6224 29.7456 35.7241 28.6324 35.7241C28.6318 35.7241 28.6314 35.7241 28.6309 35.7241C27.5176 35.7241 26.6153 36.6224 26.6152 37.7305C26.6152 40.1658 26.6152 44.2477 26.6152 46.683C26.6153 47.7911 27.5176 48.6893 28.6309 48.6893C28.6314 48.6893 28.6318 48.6893 28.6324 48.6893C29.7456 48.6893 30.648 47.7911 30.648 46.683C30.648 44.2477 30.648 40.1658 30.648 37.7305Z" fill="white"/>
<path fill-rule="evenodd" clip-rule="evenodd" d="M50.9668 46.683C50.9668 47.7911 51.8693 48.6893 52.9824 48.6893C52.983 48.6893 52.9835 48.6893 52.984 48.6893C54.0972 48.6893 54.9996 47.7911 54.9996 46.683C54.9996 44.2477 54.9996 40.1658 54.9996 37.7305C54.9996 36.6224 54.0972 35.7241 52.984 35.7241C52.9835 35.7241 52.983 35.7241 52.9824 35.7241C51.8693 35.7241 50.9668 36.6224 50.9668 37.7305C50.9668 40.1658 50.9668 44.2477 50.9668 46.683Z" fill="white"/>
<path fill-rule="evenodd" clip-rule="evenodd" d="M36.7359 31.2305C36.7359 30.1224 35.8335 29.2241 34.7203 29.2241C34.7197 29.2241 34.7192 29.2241 34.7188 29.2241C33.6055 29.2241 32.7031 30.1224 32.7031 31.2305C32.7031 33.6734 32.7031 37.7746 32.7031 40.2175C32.7031 41.3255 33.6055 42.2238 34.7188 42.2238C34.7192 42.2238 34.7197 42.2238 34.7203 42.2238C35.8335 42.2238 36.7359 41.3255 36.7359 40.2175C36.7359 37.7746 36.7359 33.6734 36.7359 31.2305Z" fill="white"/>
<path fill-rule="evenodd" clip-rule="evenodd" d="M42.859 23.9204C42.859 22.8123 41.9565 21.9141 40.8433 21.9141C40.8428 21.9141 40.8423 21.9141 40.8418 21.9141C39.7286 21.9141 38.8262 22.8123 38.8262 23.9204C38.8262 26.3556 38.8262 30.4376 38.8262 32.8729C38.8262 33.9809 39.7286 34.8793 40.8418 34.8793C40.8423 34.8793 40.8428 34.8793 40.8433 34.8793C41.9565 34.8793 42.859 33.9809 42.859 32.8729C42.859 30.4376 42.859 26.3556 42.859 23.9204Z" fill="white"/>
<path fill-rule="evenodd" clip-rule="evenodd" d="M48.9058 31.2134C48.9058 30.1053 48.0034 29.207 46.8901 29.207C46.8897 29.207 46.8892 29.207 46.8886 29.207C45.7754 29.207 44.873 30.1053 44.873 31.2134C44.873 33.6563 44.873 37.7575 44.873 40.2004C44.873 41.3084 45.7754 42.2068 46.8886 42.2068C46.8892 42.2068 46.8897 42.2068 46.8901 42.2068C48.0034 42.2068 48.9058 41.3084 48.9058 40.2004C48.9058 37.7575 48.9058 33.6563 48.9058 31.2134Z" fill="white"/>
<path fill-rule="evenodd" clip-rule="evenodd" d="M42.859 38.5235C42.859 37.4154 41.9565 36.5171 40.8433 36.5171C39.7286 36.5171 38.8262 37.4154 38.8262 38.5235C38.8262 40.9663 38.8262 45.0676 38.8262 47.5104C38.8262 48.6185 39.7286 49.5168 40.8418 49.5168C41.9565 49.5168 42.859 48.6185 42.859 47.5104C42.859 45.0676 42.859 40.9663 42.859 38.5235Z" fill="white"/>
<path fill-rule="evenodd" clip-rule="evenodd" d="M36.6998 53.1265C36.6998 52.0184 35.7974 51.1201 34.6842 51.1201C34.6837 51.1201 34.6832 51.1201 34.6826 51.1201C33.5695 51.1201 32.667 52.0184 32.667 53.1265C32.667 53.6651 32.667 54.2474 32.667 54.786C32.667 55.8941 33.5695 56.7924 34.6826 56.7924C34.6832 56.7924 34.6837 56.7924 34.6842 56.7924C35.7974 56.7924 36.6998 55.8941 36.6998 54.786C36.6998 54.2474 36.6998 53.6651 36.6998 53.1265Z" fill="white"/>
<path fill-rule="evenodd" clip-rule="evenodd" d="M36.6773 45.834C36.6773 44.7259 35.7749 43.8276 34.6617 43.8276C34.6612 43.8276 34.6606 43.8276 34.6602 43.8276C33.5469 43.8276 32.6445 44.7259 32.6445 45.834C32.6445 46.3726 32.6445 46.9549 32.6445 47.4935C32.6445 48.6017 33.5469 49.4999 34.6602 49.4999C34.6606 49.4999 34.6612 49.4999 34.6617 49.4999C35.7749 49.4999 36.6773 48.6017 36.6773 47.4935C36.6773 46.9549 36.6773 46.3726 36.6773 45.834Z" fill="white"/>
<path fill-rule="evenodd" clip-rule="evenodd" d="M42.859 53.1265C42.859 52.0184 41.9565 51.1201 40.8433 51.1201C40.8428 51.1201 40.8423 51.1201 40.8418 51.1201C39.7286 51.1201 38.8262 52.0184 38.8262 53.1265C38.8262 53.6651 38.8262 54.2474 38.8262 54.786C38.8262 55.8941 39.7286 56.7924 40.8418 56.7924C40.8423 56.7924 40.8428 56.7924 40.8433 56.7924C41.9565 56.7924 42.859 55.8941 42.859 54.786C42.859 54.2474 42.859 53.6651 42.859 53.1265Z" fill="white"/>
<path fill-rule="evenodd" clip-rule="evenodd" d="M48.9058 45.834C48.9058 44.7259 48.0034 43.8276 46.8901 43.8276C45.7754 43.8276 44.873 44.7259 44.873 45.834C44.873 46.3726 44.873 46.9549 44.873 47.4935C44.873 48.6017 45.7754 49.4999 46.8886 49.4999C48.0034 49.4999 48.9058 48.6017 48.9058 47.4935C48.9058 46.9549 48.9058 46.3726 48.9058 45.834Z" fill="white"/>
<path fill-rule="evenodd" clip-rule="evenodd" d="M42.859 60.4195C42.859 59.3113 41.9565 58.4131 40.8433 58.4131C40.8428 58.4131 40.8423 58.4131 40.8418 58.4131C39.7286 58.4131 38.8262 59.3113 38.8262 60.4195C38.8262 60.9581 38.8262 61.5404 38.8262 62.079C38.8262 63.1871 39.7286 64.0853 40.8418 64.0854C40.8423 64.0854 40.8428 64.0854 40.8433 64.0854C41.9565 64.0853 42.859 63.1871 42.859 62.079C42.859 61.5404 42.859 60.9581 42.859 60.4195Z" fill="white"/>
<path fill-rule="evenodd" clip-rule="evenodd" d="M48.9058 53.1265C48.9058 52.0184 48.0034 51.1201 46.8901 51.1201C46.8897 51.1201 46.8892 51.1201 46.8886 51.1201C45.7754 51.1201 44.873 52.0184 44.873 53.1265C44.873 53.6651 44.873 54.2474 44.873 54.786C44.873 55.8941 45.7754 56.7924 46.8886 56.7924C46.8892 56.7924 46.8897 56.7924 46.8901 56.7924C48.0034 56.7924 48.9058 55.8941 48.9058 54.786C48.9058 54.2474 48.9058 53.6651 48.9058 53.1265Z" fill="white"/>
<defs>
<filter id="filter0_d_10724_4444" x="45.6543" y="8" width="23.6865" height="24.1211" filterUnits="userSpaceOnUse" color-interpolation-filters="sRGB">
<feFlood flood-opacity="0" result="BackgroundImageFix"/>
<feColorMatrix in="SourceAlpha" type="matrix" values="0 0 0 0 0 0 0 0 0 0 0 0 0 0 0 0 0 0 127 0" result="hardAlpha"/>
<feOffset/>
<feGaussianBlur stdDeviation="1"/>
<feComposite in2="hardAlpha" operator="out"/>
<feColorMatrix type="matrix" values="0 0 0 0 1 0 0 0 0 1 0 0 0 0 1 0 0 0 0.25 0"/>
<feBlend mode="normal" in2="BackgroundImageFix" result="effect1_dropShadow_10724_4444"/>
<feBlend mode="normal" in="SourceGraphic" in2="effect1_dropShadow_10724_4444" result="shape"/>
</filter>
<linearGradient id="paint0_linear_10724_4444" x1="45.4425" y1="10" x2="70.2488" y2="11.2498" gradientUnits="userSpaceOnUse">
<stop offset="0.0756028" stop-color="#216EDA"/>
<stop offset="1" stop-color="#8469F3"/>
</linearGradient>
<linearGradient id="paint1_linear_10724_4444" x1="-117.143" y1="-251.857" x2="131.822" y2="-217.497" gradientUnits="userSpaceOnUse">
<stop stop-color="#0070D2"/>
<stop offset="0.485" stop-color="#B366FF"/>
<stop offset="0.863634" stop-color="#3290FD"/>
</linearGradient>
<radialGradient id="paint2_radial_10724_4444" cx="0" cy="0" r="1" gradientUnits="userSpaceOnUse" gradientTransform="translate(41 41) rotate(88.8983) scale(42.6479)">
<stop offset="0.903846" stop-color="white" stop-opacity="0"/>
<stop offset="1" stop-color="white"/>
</radialGradient>
</defs>
</svg>
